<?xml version="1.0" encoding="UTF-8"?><svg id="Layer_1" xmlns="http://www.w3.org/2000/svg" width="69.44" height="55.96" xmlns:xlink="http://www.w3.org/1999/xlink" viewBox="0 0 69.44 55.96"><defs><style>.cls-1{fill:url(#linear-gradient);}.cls-1,.cls-2,.cls-3{stroke:#000;stroke-linejoin:round;stroke-width:1.44px;}.cls-2{fill:url(#linear-gradient-3);}.cls-3{fill:url(#linear-gradient-2);}</style><linearGradient id="linear-gradient" x1=".72" y1="43.51" x2="40.38" y2="43.51" gradientUnits="userSpaceOnUse"><stop offset="0" stop-color="#fff"/><stop offset=".41" stop-color="#fcfcfc"/><stop offset=".66" stop-color="#f3f3f3"/><stop offset=".86" stop-color="#e5e5e5"/><stop offset="1" stop-color="#d7d7d7"/></linearGradient><linearGradient id="linear-gradient-2" x1="5.86" y1="16.25" x2="68.72" y2="16.25" gradientUnits="userSpaceOnUse"><stop offset="0" stop-color="#fff"/><stop offset=".26" stop-color="#fbfbfb"/><stop offset=".46" stop-color="#f1f1f1"/><stop offset=".65" stop-color="#e1e1e1"/><stop offset=".82" stop-color="#c9c9c9"/><stop offset=".99" stop-color="#ababab"/><stop offset="1" stop-color="#a9a9a9"/></linearGradient><linearGradient id="linear-gradient-3" x1="68.72" y1="25.81" x2="35.07" y2="25.81" gradientUnits="userSpaceOnUse"><stop offset="0" stop-color="#fff"/><stop offset=".2" stop-color="#ededed"/><stop offset=".6" stop-color="#c1c1c1"/><stop offset="1" stop-color="#8e8e8e"/></linearGradient></defs><path class="cls-1" d="M5.86,31.78c-2.14,5.46-4.22,10.99-5.04,16.79-.59,4.12,1.42,5.57,5.39,6.03,5.71.66,11.7.84,17.43.41,6.72-.5,10.54-.33,12.8-7.18,1.4-4.24,1.76-5.5,2.32-8.47.65-3.45.6-5.36,1.62-7.58"/><path class="cls-3" d="M36.82,1.44q-1.25.48-3,1.96c-2.64,2.23-5.51,5.53-7.91,8.03-5.37,5.62-10.93,11.07-16.39,16.61-.49.5-1.25,1.21-3.67,3.74h34.52L68.72.73c-4.71,0-9.41-.01-14.12,0-3.53,0-7.06.04-10.59,0-2.91-.02-5.15-.08-7.18.71Z"/><path class="cls-2" d="M68.72.73l-28.34,31.05c-.26.4-.64,2.22-.91,3.18-.47,1.68-1.04,3.87-1.5,5.57-1.24,4.54-1.53,5.85-2.91,10.36,8.58-9.35,15.51-16.04,24.1-25.39,4.05-4.4,6.34-7.69,7.42-13.48.7-3.76,1.4-7.52,2.13-11.28"/></svg>